<svg width="847" height="158" viewBox="0 0 847 158" fill="none" xmlns="http://www.w3.org/2000/svg">
<path d="M613.168 8.30859L559.143 77.126L593.033 126.109L593.036 126.115C597.582 132.878 602.414 138.529 607.531 143.074C610.129 145.244 615.191 148.048 620.422 150.37C625.662 152.696 630.962 154.49 634.035 154.705L634 155.704H601.464C594.997 155.704 589.279 153.438 584.327 148.925L584.321 148.92C579.422 144.306 574.682 138.363 570.099 131.101L546.17 94.7754L501.077 156.296L500.919 156.512L500.651 156.499L480.838 155.604L479.892 155.562L480.46 154.805L536.116 80.6436L507.103 38.0283V38.0273C503.573 32.8665 500.492 28.8242 497.86 25.8926L497.852 25.8838C495.245 22.8346 491.832 20.1364 487.601 17.7959C485.491 16.629 481.101 14.6075 476.462 12.8398C471.806 11.0656 466.982 9.58012 463.977 9.43652L464 8.4375H498.674C505.277 8.4375 510.855 10.6228 515.374 14.999L516.215 15.8027C520.445 19.9303 525.052 25.6786 530.035 33.0342L530.041 33.043L549.563 63.0889L590.783 8.96387L590.923 8.78125L591.152 8.76758L612.746 7.50098L613.854 7.43555L613.168 8.30859Z" fill="white" stroke="white"/>
<path d="M773.144 86.5938V155.5H755.545V40.9546H772.548V58.8523H774.039C776.724 53.0356 780.801 48.3623 786.269 44.8325C791.738 41.2529 798.798 39.4631 807.448 39.4631C815.204 39.4631 821.99 41.054 827.807 44.2359C833.624 47.368 838.148 52.1407 841.379 58.554C844.611 64.9177 846.227 72.9717 846.227 82.716V155.5H828.627V83.9092C828.627 74.9106 826.291 67.9006 821.617 62.8793C816.944 57.8083 810.531 55.2728 802.377 55.2728C796.759 55.2728 791.738 56.4908 787.313 58.9269C782.938 61.363 779.483 64.9177 776.948 69.591C774.412 74.2643 773.144 79.9319 773.144 86.5938Z" fill="white"/>
<path d="M681.344 155.886C670.307 155.886 660.787 153.45 652.782 148.578C644.828 143.656 638.688 136.796 634.363 127.996C630.087 119.146 627.949 108.855 627.949 97.1222C627.949 85.3893 630.087 75.0484 634.363 66.0995C638.688 57.1009 644.703 50.091 652.409 45.0697C660.165 39.9986 669.213 37.4631 679.554 37.4631C685.52 37.4631 691.412 38.4575 697.228 40.4461C703.045 42.4347 708.34 45.6663 713.113 50.1407C717.885 54.5654 721.689 60.4319 724.522 67.7401C727.356 75.0484 728.773 84.0469 728.773 94.7359V102.193H640.478V86.9802H710.875C710.875 80.5171 709.583 74.7501 706.997 69.679C704.462 64.608 700.833 60.6059 696.11 57.6726C691.436 54.7394 685.918 53.2728 679.554 53.2728C672.544 53.2728 666.479 55.0128 661.358 58.493C656.287 61.9234 652.385 66.3978 649.65 71.9163C646.916 77.4347 645.549 83.3509 645.549 89.6648V99.8069C645.549 108.457 647.04 115.791 650.023 121.806C653.056 127.772 657.257 132.321 662.626 135.453C667.995 138.536 674.235 140.077 681.344 140.077C685.968 140.077 690.144 139.43 693.872 138.138C697.651 136.796 700.907 134.807 703.642 132.172C706.376 129.487 708.489 126.156 709.98 122.179L726.983 126.952C725.193 132.719 722.186 137.79 717.96 142.165C713.734 146.49 708.514 149.871 702.299 152.307C696.085 154.693 689.1 155.886 681.344 155.886Z" fill="white"/>
<path d="M390.661 84.928V155H373V38.5167H390.062V56.7172H391.559C394.253 50.8021 398.344 46.0497 403.832 42.4602C409.32 38.8201 416.405 37 425.086 37C432.868 37 439.678 38.6178 445.516 41.8535C451.353 45.0386 455.893 49.892 459.136 56.4139C462.379 62.8852 464 71.0754 464 80.9846V155H446.339V82.1979C446.339 73.0471 443.994 65.9186 439.304 60.8123C434.615 55.6555 428.179 53.0771 419.997 53.0771C414.359 53.0771 409.32 54.3158 404.88 56.793C400.49 59.2703 397.022 62.8852 394.478 67.6375C391.933 72.3899 390.661 78.1534 390.661 84.928Z" fill="white"/>
<path fill-rule="evenodd" clip-rule="evenodd" d="M323.646 21.5681C326.126 23.9288 329.077 25.1091 332.5 25.1091C335.923 25.1091 338.849 23.9288 341.28 21.5681C343.76 19.2074 345 16.3696 345 13.0546C345 9.73955 343.76 6.90171 341.28 4.54102C338.849 2.18034 335.923 1 332.5 1C329.077 1 326.126 2.18034 323.646 4.54102C321.215 6.90171 320 9.73955 320 13.0546C320 16.3696 321.215 19.2074 323.646 21.5681Z" fill="white"/>
<path d="M323.571 39.2761V155H341.131V39.2761H323.571Z" fill="white"/>
<path d="M225.379 112.891L225.082 90.9336H228.655L278.687 39.5H300.426L247.119 93.9414H245.63L225.379 112.891ZM209 155V1H226.571V155H209ZM281.665 155L236.994 97.8516L249.502 85.5195L304 155H281.665Z" fill="white"/>
<path d="M2.50977 1.31908L56.5096 1.31929C55.4275 12.8392 54.5934 37.7864 57.5529 56.6869C60.7573 77.1517 68.6367 92.8981 81.838 105.957C41.5386 98.9213 1.55603 86.4639 2.5096 47.4563L2.50977 1.31908Z" fill="white"/>
<path d="M81.8381 105.956V51.4561C81.8381 43.9561 84.4381 39.4561 90.8381 35.4561C97.2381 31.4561 139.667 11 160.001 1L160.838 50.4561C160.838 56.9561 156.51 68.8702 144.338 74.9561C131.538 81.3561 97.5048 98.2894 81.8381 105.956Z" fill="white"/>
<path d="M81.8381 105.956L115.01 148.954C118.01 152.456 119.51 155.454 126.01 155.454C131.51 155.454 161.01 155.454 175.01 155.454L142.01 111.954C139.51 109.456 134.11 105.854 124.51 105.454C114.91 105.054 92.3381 105.789 81.8381 105.956Z" fill="white"/>
<path d="M81.8381 105.956L51.0098 106.454C48.3431 106.621 41.3098 108.754 34.5098 115.954C27.7098 123.554 10.3431 145.454 2.50977 155.454H82.0098L81.8381 105.956Z" fill="white"/>
</svg>
