<svg width="747" height="663" viewBox="0 0 747 663" fill="none" xmlns="http://www.w3.org/2000/svg">
<path d="M10.7014 5.62577L241.006 5.62665C236.392 54.7582 232.834 161.156 245.456 241.765C259.123 329.046 292.727 396.203 349.03 451.896C177.156 421.892 6.6338 368.762 10.7007 202.397L10.7014 5.62577Z" fill="white"/>
<path d="M349.026 451.894V219.456C349.026 187.469 360.115 168.277 387.411 151.217C414.706 134.158 595.664 46.9141 682.384 4.26489L685.955 215.191C685.955 242.913 667.495 293.726 615.584 319.682C560.993 346.977 415.844 419.196 349.026 451.894Z" fill="white"/>
<path d="M349.026 451.894L490.501 635.278C503.296 650.213 509.693 663 537.415 663C560.872 663 686.687 663 746.396 663L605.654 477.476C594.991 466.821 571.961 451.46 531.018 449.754C490.074 448.048 393.808 451.183 349.026 451.894Z" fill="white"/>
<path d="M349.026 451.894L217.546 454.019C206.173 454.73 176.176 463.828 147.175 494.536C118.173 526.949 44.1058 620.351 10.6973 663H349.758L349.026 451.894Z" fill="white"/>
</svg>
